<svg version="1" xmlns="http://www.w3.org/2000/svg" width="824" height="824" viewBox="0 0 618.000000 618.000000"><path d="M0 308.8v266.8l13.5.2c7.4.1 14.1.2 14.8.2.6 0 6.5-.1 13-.3 6.4-.1 11.7.2 11.7.7 0 .5.6.4 1.3-.1 1.5-1 24.7-1 26.5.1.6.4 1.2.4 1.2-.1 0-1 33.1-1 34.8.1.6.4 1.2.4 1.2-.1 0-.4 3.3-.7 7.3-.5 3.9.1 7.9.2 8.7.2h278c.8 0 6.8-.1 13.3-.3 6.4-.1 11.7.2 11.7.7 0 .5.6.4 1.3-.1 1.5-1 24.7-1 26.5.1.6.4 1.2.4 1.2-.1 0-1 33.1-1 34.8.1.6.4 1.2.4 1.2-.1 0-.4 8.4-.7 18.7-.6 10.4.2 19.3.3 19.8.3.6 0 6.3-.1 12.8-.3 6.4-.1 11.7.2 11.7.7 0 .5.6.4 1.2-.1 1.6-1 24.8-1 26.6.1.6.4 1.2.4 1.2-.1 0-.4 5.1-.8 11.3-.7l11.4.1V42H0v266.8z"/></svg>